<svg width="614" height="599" viewBox="0 0 614 599" fill="none" xmlns="http://www.w3.org/2000/svg">
<mask id="mask0_4_22" style="mask-type:alpha" maskUnits="userSpaceOnUse" x="-1" y="-1" width="616" height="601">
<path d="M411.5 467.5L406 599H0L7.5 8L603.5 0L613.5 467.5L527 457L411.5 467.5Z" fill="white" stroke="black"/>
</mask>
<g mask="url(#mask0_4_22)">
<path d="M137.688 557.312C75.1875 557.312 43.3125 526.062 43.3125 464.188V103.562C43.3125 41.6875 75.1875 10.4375 137.688 10.4375H496.125C558.625 10.4375 590.188 42 590.188 103.562V464.188C590.188 525.75 558.625 557.312 496.125 557.312H137.688ZM139.25 506.062H494.25C523 506.062 539.25 490.75 539.25 460.75V106.688C539.25 76.6875 523 61.375 494.25 61.375H139.25C110.5 61.375 94.5625 76.6875 94.5625 106.688V460.75C94.5625 490.75 110.5 506.062 139.25 506.062Z" fill="black"/>
</g>
</svg>
