<svg width="637" height="632" viewBox="0 0 637 632" fill="none" xmlns="http://www.w3.org/2000/svg">
<mask id="mask0_3_17" style="mask-type:alpha" maskUnits="userSpaceOnUse" x="-1" y="-1" width="639" height="634">
<path d="M212 541V631.5L0 541L51.5 31L619.5 0L637 203.5H538.5L501.5 126L160.5 155.5L166 494L212 541Z" fill="white" stroke="black"/>
</mask>
<g mask="url(#mask0_3_17)">
<path d="M161.188 597.312C98.6875 597.312 66.8125 566.062 66.8125 504.188V143.562C66.8125 81.6875 98.6875 50.4375 161.188 50.4375H519.625C582.125 50.4375 613.688 82 613.688 143.562V504.188C613.688 565.75 582.125 597.312 519.625 597.312H161.188ZM162.75 546.062H517.75C546.5 546.062 562.75 530.75 562.75 500.75V146.688C562.75 116.688 546.5 101.375 517.75 101.375H162.75C134 101.375 118.062 116.688 118.062 146.688V500.75C118.062 530.75 134 546.062 162.75 546.062Z" fill="black"/>
</g>
</svg>
