<svg width="547" height="547" viewBox="0 0 547 547" fill="none" xmlns="http://www.w3.org/2000/svg">
<path d="M94.375 546.875C31.875 546.875 0 515.625 0 453.75V93.125C0 31.25 31.875 0 94.375 0H452.812C515.312 0 546.875 31.5625 546.875 93.125V453.75C546.875 515.312 515.312 546.875 452.812 546.875H94.375ZM240.938 418.125C251.25 418.125 260 413.125 266.25 403.125L405.312 185.625C409.062 179.375 412.812 172.188 412.812 165.625C412.812 151.25 400 141.875 386.562 141.875C378.125 141.875 370.312 146.562 364.688 156.25L239.688 356.562L180.625 280.625C173.438 270.938 166.562 268.125 157.812 268.125C143.75 268.125 132.812 279.375 132.812 293.438C132.812 300.312 135.625 307.188 140.312 313.125L213.75 403.438C221.875 413.75 230.312 418.125 240.938 418.125Z" fill="black"/>
</svg>
